# xmcd
#
# Track frame offsets:
#	150
#	17477
#	37095
#	52440
#	65511
#	83023
#	94360
#	115728
#	130710
#	144145
#	160279
#	176560
#	195739
#	216746
#	232709
#	248381
#
# Disc length: 3439 seconds
#
# Revision: 1
# Processed by: cddbd v1.5.1PL2 Copyright (c) Steve Scherf et al.
# Submitted via: audiograbber 1.83.01
#
DISCID=da0d6d10
DTITLE=Various Artist - ACK013
DYEAR=1900
DGENRE=karaoke
TTITLE0=ANASTACIA - IM OUTTA LOVE  
TTITLE1=BACHELOR GIRL - PERMISSION TO SHINE
TTITLE2=BAHA MEN - WHO LET THE DOGS OUT
TTITLE3=BONFUNK MCS - FREESTYLER
TTITLE4=CHRISTINE ANU - ISLAND HOME
TTITLE5=GREENDAY - TIME OF YOUR LIFE
TTITLE6=HUMAN NATURE and JOHN FARNHAM - EVERYTIME YOU CRY
TTITLE7=JEBEDIAH - LEAVING HOME
TTITLE8=KATE CEBERANO - LOVE IS ALIVE
TTITLE9=KATE CEBERANO - PASH
TTITLE10=KILLING HEIDI - WEIR
TTITLE11=KILLING HEIDI - MASCARA
TTITLE12=POWDERFINGER - MY HAPPINESS
TTITLE13=REGURGITATOR - POLYESTER GIRL
TTITLE14=S2S - SISTER
TTITLE15=AUSSIE TRADITIONAL - ADVANCE AUSTRALIA FAIR
EXTD=
EXTT0=
EXTT1=
EXTT2=
EXTT3=
EXTT4=
EXTT5=
EXTT6=
EXTT7=
EXTT8=
EXTT9=
EXTT10=
EXTT11=
EXTT12=
EXTT13=
EXTT14=
EXTT15=
PLAYORDER=
